<?xml version="1.0" encoding="UTF-8" standalone="no"?>
<!-- Created with Inkscape (http://www.inkscape.org/) -->

<svg
   xmlns:dc="http://purl.org/dc/elements/1.1/"
   xmlns:cc="http://creativecommons.org/ns#"
   xmlns:rdf="http://www.w3.org/1999/02/22-rdf-syntax-ns#"
   xmlns:svg="http://www.w3.org/2000/svg"
   xmlns="http://www.w3.org/2000/svg"
   xmlns:sodipodi="http://sodipodi.sourceforge.net/DTD/sodipodi-0.dtd"
   xmlns:inkscape="http://www.inkscape.org/namespaces/inkscape"
   width="210mm"
   height="297mm"
   viewBox="0 0 210 297"
   version="1.1"
   id="svg1038"
   inkscape:version="0.92.4 (5da689c313, 2019-01-14)"
   sodipodi:docname="dinofinal.svg">
  <defs
     id="defs1032" />
  <sodipodi:namedview
     id="base"
     pagecolor="#ffffff"
     bordercolor="#666666"
     borderopacity="1.0"
     inkscape:pageopacity="0.0"
     inkscape:pageshadow="2"
     inkscape:zoom="1.979899"
     inkscape:cx="512.44857"
     inkscape:cy="154.63849"
     inkscape:document-units="mm"
     inkscape:current-layer="g993"
     showgrid="false"
     inkscape:window-width="1360"
     inkscape:window-height="705"
     inkscape:window-x="-8"
     inkscape:window-y="-8"
     inkscape:window-maximized="1" />
  <metadata
     id="metadata1035">
    <rdf:RDF>
      <cc:Work
         rdf:about="">
        <dc:format>image/svg+xml</dc:format>
        <dc:type
           rdf:resource="http://purl.org/dc/dcmitype/StillImage" />
        <dc:title></dc:title>
      </cc:Work>
    </rdf:RDF>
  </metadata>
  <g
     inkscape:label="Capa 1"
     inkscape:groupmode="layer"
     id="layer1">
    <g
       id="g993"
       transform="matrix(-4.9565419,0,0,5.3895571,193.54594,-502.49463)">
      <path
         sodipodi:nodetypes="cssssssscssccssssssccscsccccccccccccccccccccccscccccccscsccscscccccssccsccscsscccccsssc"
         inkscape:connector-curvature="0"
         id="path21"
         d="m 14.29892,113.2522 c -0.278165,-1.20354 -1.020695,-2.37143 -1.416529,-3.59812 -0.41041,-1.27185 -0.633153,-2.60134 -0.755036,-3.9322 -0.122146,-1.33373 -0.201237,-2.66248 0.03341,-3.96227 0.277877,-1.53927 0.856739,-2.903768 1.673775,-4.152702 0.782896,-1.196747 1.857003,-2.042333 3.003442,-2.782944 1.259225,-0.813471 2.802334,-1.272889 4.306381,-1.399825 1.335817,-0.112737 2.657192,0.250423 3.862044,0.771743 1.09841,0.475264 2.689399,2.283483 2.689399,2.283483 0,0 3.491794,0.184198 5.178347,0.603027 0.834945,0.207345 1.576531,0.566833 2.26511,1.028986 0.663281,0.445174 2.153189,2.520692 2.153189,2.520692 1.519007,-0.062 2.279832,2.03657 0.740002,2.82804 0,0 -0.0067,1.87566 -0.128623,2.80299 -0.180151,1.36992 -0.711979,2.74651 -1.261176,4.04913 -0.334509,0.79341 -0.997145,1.55782 -1.650392,2.20163 -0.621747,0.61277 -1.684331,0.89369 -2.585832,1.18936 -0.972261,0.31887 -2.275771,0.28451 -3.568047,0.30235 -0.765508,0.0106 -1.681605,-0.0743 -2.360324,-0.2606 -0.850013,-0.23327 -2.248405,-1.01729 -2.248405,-1.01729 l 0.0167,2.73283 c 0.769035,0.0409 1.217159,0.82588 1.528447,1.41489 0.3271,0.61893 0.514573,1.46082 1.207726,1.84583 0.691722,0.27062 1.351662,0.35868 1.805268,0.18352 0.252287,-0.0974 0.514058,-0.39669 0.985614,-0.34137 0.194124,-0.13626 0.208333,-0.29228 0.621263,-0.14028 0.137459,-0.10772 0.367423,-0.24083 0.636989,-0.28319 1.249832,0.0323 2.117475,0.53848 3.0452,1.25951 -0.775439,0.43154 -1.5451,0.27369 -2.180795,0.0713 1.001337,0.80441 1.49561,1.41431 0.924628,2.55627 -0.484268,-0.65504 -1.000333,-1.11602 -1.608627,-1.15093 0.490527,1.54068 -0.289833,2.26703 -0.357473,2.7796 -0.674866,-0.82461 -0.687524,-1.67292 -0.694679,-1.64646 -0.344536,-0.25273 -0.584112,-0.51319 -0.716838,-1.25007 -0.914532,-0.16406 -1.874199,-0.19272 -2.913238,0.0167 l 0.05283,0.31105 c 0,0 1.241727,0.27155 1.736203,0.61436 0.510964,0.46557 1.285206,1.17572 1.059056,1.85419 -0.587484,-0.45606 -0.989482,-0.46166 -1.361406,-0.39422 l 0.04468,0.32601 -1.003638,-0.31438 c 1.106563,1.10495 1.010064,1.63419 0.738458,2.90828 -0.172927,-0.0959 -0.399079,-0.6353 -0.571306,-0.72696 -0.0513,-0.0273 -0.0512,0.37805 -0.101877,0.35446 -0.295675,1.45788 -0.488532,2.07431 -1.197702,3.0452 0.300855,5.06072 -0.754855,6.77248 -5.241824,8.11497 0.541811,4.74271 2.834162,1.36488 6.558126,3.04019 0.299331,0.13466 0.360956,0.58797 0.190431,0.95215 0.477099,0.72361 1.108426,1.07092 0.898693,2.72615 -0.685949,-0.8638 -1.54363,-2.08813 -2.243501,-1.28091 -0.06984,-10e-4 -0.653868,-0.3461 -0.653868,-0.3461 l 0.613929,0.33924 c 0.106237,0.0157 0.367652,2.2011 -0.121986,3.29229 -0.371248,-0.69783 -0.60279,-1.53537 -1.336348,-1.87089 -1.484243,0.64108 -1.880145,-1.59179 -2.749535,-1.67377 -1.629287,-0.15364 -2.832535,0.34901 -3.975634,-0.15034 0.06481,-0.91562 0.907507,-0.85994 0.978874,-1.72388 0.258733,-3.13213 -2.378382,-1.27632 -1.870886,-5.40553 l -1.513405,0.1637 c -1.963153,2.36128 -3.982364,4.31367 -7.8410194,1.70718 -0.8103852,-0.54741 -1.8202952,2.84969 -0.9321027,4.05582 4.1475291,1.5804 4.4564671,1.33323 5.2518461,2.63595 0.594814,0.97422 0.862888,1.314 0.758377,2.92993 -0.715532,-1.46653 -3.0435075,-2.13802 -2.8872098,-1.95415 l -0.56515,-0.63856 c 0,0 0.5471996,0.54035 0.56515,0.63856 0.1604632,1.17733 0.3281728,2.1881 0.2145148,3.55777 -0.4093927,-0.77868 -1.0043999,-1.50241 -1.707215,-1.78551 -0.3097841,-0.12478 -0.9896892,-0.10109 -1.1508898,-0.40621 -2.2484744,-4.25592 -2.9881654,-1.63323 -4.4918101,-3.02003 0.2640909,-1.3178 2.2619743,-1.79009 2.1047475,-2.26177 -0.3198148,-1.80158 -1.377552,-3.87121 -1.8408187,-4.79081 -0.2617347,-0.51955 0.1489792,-0.92036 0.7750817,-1.1693 1.3376049,-0.0622 3.0917269,0.53932 4.0790163,-0.18325 0,0 -4.2175877,-1.20923 -5.9198352,-2.28565 -1.46638285,-0.92727 -2.73613977,-2.50948 -3.7584777,-3.94223 -1.9579664,-4.18401 -1.3675368,-7.40901 0.2839738,-11.82668 0.80510583,-2.1536 0.5487202,-4.43089 0.2973374,-6.68174 -0.1071975,-0.95983 0.47106254,-1.58357 0.47106254,-1.58357 2.51245406,2.36236 3.17528066,5.11175 3.32416466,8.03479 0.07293,1.09931 -0.5252429,2.29667 -0.5211756,3.46449 0.1833179,2.55872 1.8495081,3.44908 4.0758603,3.53464 1.8732565,0.0558 3.5157083,-0.99127 4.7807839,-2.09139 0.926854,-0.81172 1.60699,-1.70977 2.288495,-2.73617 0.495868,-0.74682 0.929537,-1.53227 1.132555,-2.40543 0.186884,-0.80377 0.23928,-1.67156 0.05346,-2.47558 z"
         style="fill:#61DAFB;stroke:#000000;stroke-width:0.25600001;stroke-linecap:butt;stroke-linejoin:miter;stroke-miterlimit:4;stroke-dasharray:none;stroke-opacity:1" />
      <ellipse
         ry="3.029659"
         rx="3.0964763"
         cy="99.220551"
         cx="21.982918"
         id="path831"
         style="fill:#ffffff;stroke:#000000;stroke-width:0.58788115;stroke-miterlimit:4;stroke-dasharray:none;stroke-opacity:1" />
      <path
         inkscape:connector-curvature="0"
         id="path865"
         d="m 21.786496,97.075912 c -0.01382,-0.004 -0.06685,0.01449 -0.170874,0.05148 -0.203273,0.07227 -0.300949,0.123316 -0.487784,0.257424 -0.359632,0.258136 -0.61425,0.655821 -0.71319,1.112295 -0.0376,0.173409 -0.03481,0.569253 0.0054,0.738338 0.04338,0.182169 0.09042,0.30527 0.181785,0.477497 0.263551,0.496904 0.765639,0.852114 1.336708,0.945974 0.151678,0.0249 0.42673,0.025 0.584125,0 0.669124,-0.10653 1.239448,-0.57455 1.456682,-1.195473 0.06434,-0.183919 0.06408,-0.184117 -0.0412,-0.08321 -0.207092,0.198546 -0.450439,0.333045 -0.729552,0.403958 -0.134937,0.03427 -0.451538,0.0474 -0.602307,0.02485 -0.304087,-0.04543 -0.583695,-0.176606 -0.816203,-0.383013 -0.251588,-0.223355 -0.416741,-0.507045 -0.496871,-0.852616 -0.03298,-0.142262 -0.03298,-0.485184 0,-0.627441 0.0725,-0.312681 0.217399,-0.578637 0.429611,-0.788677 0.05219,-0.05165 0.07745,-0.07756 0.06363,-0.08147 z"
         style="fill:#000000;stroke:#000000;stroke-width:0.02503666;stroke-miterlimit:4;stroke-dasharray:none;stroke-opacity:1" />
      <path
         sodipodi:nodetypes="cccccc"
         inkscape:connector-curvature="0"
         id="path902"
         d="m 31.485416,97.867969 c 2.505659,0.499536 3.326125,1.072341 3.825699,1.659098 0.756587,0.945643 1.456195,1.922933 1.432895,3.301843 v 0 c -0.03625,-1.542 -0.702285,-2.45421 -1.432895,-3.301843 -1.105201,-1.063128 -2.461505,-1.372947 -3.825699,-1.659098 z"
         style="fill:none;stroke:#ffffff;stroke-width:0.26458332px;stroke-linecap:butt;stroke-linejoin:miter;stroke-opacity:1" />
      <path
         inkscape:connector-curvature="0"
         id="path904"
         d="m 36.843229,103.88724 c 0,0.0882 0,0.17639 0,0.26458 0,0.16537 0,0.33073 0,0.4961 0,0.0441 0,0.0882 0,0.13229 0,0.011 0.01103,0.0331 0,0.0331 -0.01103,0 0,-0.0441 0,-0.0331 0,0.0551 0,0.11024 0,0.16536 0,0.022 0,0.0441 0,0.0661 0,0.011 0.01103,0.0331 0,0.0331 -0.01103,0 0,-0.022 0,-0.0331"
         style="fill:none;stroke:#ffffff;stroke-width:0.26458332px;stroke-linecap:butt;stroke-linejoin:miter;stroke-opacity:1" />
      <path
         sodipodi:nodetypes="sccccccccs"
         inkscape:connector-curvature="0"
         id="path908"
         transform="scale(0.26458333)"
         d="m 120.74414,386.06445 c -0.48624,-0.002 -0.9693,0.098 -1.42383,0.29688 -1.21207,0.53023 -2.28587,1.48834 -3.16797,3.13281 v 0 c 0,0 1.08801,2.15005 2.7793,1.87695 1.41004,-0.46056 1.91774,-0.608 2.85156,0.13086 1.4614,1.54007 0.94202,0.9122 2.6211,3.43164 l 0.83593,1.31055 c 1.0551,-3.43767 0.2065,-7.46377 -2.13281,-9.31445 -0.73103,-0.57834 -1.55289,-0.86259 -2.36328,-0.86524 z"
         style="color:#000000;font-style:normal;font-variant:normal;font-weight:normal;font-stretch:normal;font-size:medium;line-height:normal;font-family:sans-serif;font-variant-ligatures:normal;font-variant-position:normal;font-variant-caps:normal;font-variant-numeric:normal;font-variant-alternates:normal;font-feature-settings:normal;text-indent:0;text-align:start;text-decoration:none;text-decoration-line:none;text-decoration-style:solid;text-decoration-color:#000000;letter-spacing:normal;word-spacing:normal;text-transform:none;writing-mode:lr-tb;direction:ltr;text-orientation:mixed;dominant-baseline:auto;baseline-shift:baseline;text-anchor:start;white-space:normal;shape-padding:0;clip-rule:nonzero;display:inline;overflow:visible;visibility:visible;opacity:1;isolation:auto;mix-blend-mode:normal;color-interpolation:sRGB;color-interpolation-filters:linearRGB;solid-color:#000000;solid-opacity:1;vector-effect:none;fill:#000000;fill-opacity:1;fill-rule:nonzero;stroke:none;stroke-width:0.9675591;stroke-linecap:butt;stroke-linejoin:miter;stroke-miterlimit:4;stroke-dasharray:none;stroke-dashoffset:0;stroke-opacity:1;color-rendering:auto;image-rendering:auto;shape-rendering:auto;text-rendering:auto;enable-background:accumulate" />
      <path
         sodipodi:nodetypes="ccscsccccc"
         inkscape:connector-curvature="0"
         id="path916"
         transform="scale(0.26458333)"
         d="m 117.58984,380.75195 c -0.27533,-0.008 -0.55395,0.019 -0.83398,0.0723 -2.24027,0.4388 -3.8831,3.32758 -4.53125,5.6543 -0.19986,0.71746 0.29457,2.21482 0.29457,2.21482 0,0 0.32511,-1.40159 0.6566,-2.03123 0.95799,-1.81965 2.06711,-4.55401 3.76563,-4.88672 1.69853,-0.3326 3.15564,-0.008 4.12695,2.35742 l 0.72266,-0.98828 c -0.95049,-2.31602 -2.27384,-2.3496 -4.20118,-2.39258 z"
         style="color:#000000;font-style:normal;font-variant:normal;font-weight:normal;font-stretch:normal;font-size:medium;line-height:normal;font-family:sans-serif;font-variant-ligatures:normal;font-variant-position:normal;font-variant-caps:normal;font-variant-numeric:normal;font-variant-alternates:normal;font-feature-settings:normal;text-indent:0;text-align:start;text-decoration:none;text-decoration-line:none;text-decoration-style:solid;text-decoration-color:#000000;letter-spacing:normal;word-spacing:normal;text-transform:none;writing-mode:lr-tb;direction:ltr;text-orientation:mixed;dominant-baseline:auto;baseline-shift:baseline;text-anchor:start;white-space:normal;shape-padding:0;clip-rule:nonzero;display:inline;overflow:visible;visibility:visible;opacity:1;isolation:auto;mix-blend-mode:normal;color-interpolation:sRGB;color-interpolation-filters:linearRGB;solid-color:#000000;solid-opacity:1;vector-effect:none;fill:#000000;fill-opacity:1;fill-rule:nonzero;stroke:none;stroke-width:0.96755898;stroke-linecap:butt;stroke-linejoin:miter;stroke-miterlimit:4;stroke-dasharray:none;stroke-dashoffset:0;stroke-opacity:1;color-rendering:auto;image-rendering:auto;shape-rendering:auto;text-rendering:auto;enable-background:accumulate" />
      <path
         sodipodi:nodetypes="cccc"
         inkscape:connector-curvature="0"
         id="path923"
         d="m -0.44648437,109.55924 c 1.30038591,1.71148 1.85761097,3.34864 1.83554687,4.92787 v -0.0165 c -0.054637,-1.39832 -0.2611588,-2.86173 -1.83554687,-4.91137 z"
         style="fill:none;stroke:#ffffff;stroke-width:0.26458332px;stroke-linecap:butt;stroke-linejoin:miter;stroke-opacity:1" />
      <path
         sodipodi:nodetypes="ccccsccccc"
         inkscape:connector-curvature="0"
         id="path927"
         d="m 15.458204,134.93111 c 1.128396,-1.87317 0.686076,-3.96238 0.07015,-5.60933 0,0 1.200825,-0.51466 1.73057,-0.88867 5.257068,-4.50455 1.367244,-9.21954 6.68842,-11.88013 0.842295,0.75641 1.31655,1.23665 1.753957,2.26845 l 0.828533,1.95442 0.52773,2.39692 0.06527,2.53587 c -0.02442,0.4152 -0.721254,2.71805 -1.197701,3.0452 -2.066384,3.27266 -6.162097,5.71396 -10.466932,6.17727 z"
         style="fill:#008080;stroke:#000000;stroke-width:0.26458332px;stroke-linecap:butt;stroke-linejoin:miter;stroke-opacity:1" />
      <path
         sodipodi:nodetypes="ccccccccccccccccccccsccc"
         inkscape:connector-curvature="0"
         id="path925"
         d="m 18.157031,121.21745 c 0.882774,-1.43821 0.560431,-3.29934 0.330731,-4.63021 0.371856,-0.65766 0.788808,-0.72908 1.222725,-0.57995 0.9978,1.33699 1.376921,3.0104 0.993165,4.44948 1.377143,0.98404 2.831045,0.65583 4.530988,0.69444 1.145804,-0.22324 2.021498,0.17391 3.084238,0.54996 -1.375533,0.21923 -0.944491,0.85385 -0.25767,1.78598 v 0 l -1.003639,-0.31438 c -0.300967,-0.8701 -1.151015,-1.51696 -1.822929,-2.02156 0.865311,0.56162 1.384863,1.18306 1.822929,2.02156 v 0 0 0 l 0.359884,0.55813 c -0.92942,-0.41442 -1.218165,0.0703 -1.008724,0.89296 -0.370344,-0.0483 -0.661444,-0.19705 -0.975651,-0.38034 -0.216923,-0.87406 -0.604447,-1.53205 -1.703256,-1.85208 1.100632,0.32932 1.62819,1.18502 1.653646,1.80247 l 0.03307,1.45521 c -0.387267,0.12377 -0.618089,-0.3364 -0.992187,-0.36381 -0.399244,-0.0293 -0.514261,0.40976 -0.909506,0.33073 0.09503,-1.56533 -0.490093,-1.96762 -1.736326,-2.2655 -1.779863,-0.51038 -3.697575,-0.69138 -3.621488,-2.13309"
         style="fill:#61DAFB;stroke:#000000;stroke-width:0.26458332px;stroke-linecap:butt;stroke-linejoin:miter;stroke-opacity:1" />
      <path
         sodipodi:nodetypes="cccc"
         inkscape:connector-curvature="0"
         id="path929"
         d="m 16.007774,133.87037 c 4.335183,-1.38575 7.439043,-3.06532 10.465273,-5.97514 -1.679156,3.31692 -6.18474,6.42093 -11.014843,7.03588 l 0.584649,-1.14259"
         style="fill:#004040;fill-opacity:1;stroke:#000000;stroke-width:0.26458332px;stroke-linecap:butt;stroke-linejoin:miter;stroke-opacity:1" />
      <path
         sodipodi:nodetypes="cccsc"
         inkscape:connector-curvature="0"
         id="path931"
         d="m 23.514845,125.61604 c 0.02314,1.36042 0.523332,1.14 0.595311,1.9018 0.821869,-0.9699 1.293327,-0.82245 1.306382,-1.86872 -0.194079,0.0922 -0.291433,-0.45866 -1.02437,-0.43152 -0.362015,0.0134 -0.546871,0.30385 -0.877323,0.39844 z"
         style="fill:#f2f2f2;stroke:#000000;stroke-width:0.26458332px;stroke-linecap:butt;stroke-linejoin:miter;stroke-opacity:1" />
      <path
         sodipodi:nodetypes="cscsc"
         inkscape:connector-curvature="0"
         id="path933"
         d="m 26.408729,124.62386 c 0.202584,0.2061 0.470089,0.42311 0.550053,0.48524 0.396423,0.30801 0.530239,0.52893 0.837239,0.97204 0.119779,-0.81932 0.283154,-1.69629 -0.180136,-2.2592 -0.617861,-0.75072 -1.434685,-0.006 -1.207156,0.80192 z"
         style="fill:#f2f2f2;stroke:#000000;stroke-width:0.26458332px;stroke-linecap:butt;stroke-linejoin:miter;stroke-opacity:1" />
      <path
         sodipodi:nodetypes="cccc"
         inkscape:connector-curvature="0"
         id="path935"
         d="m 28.318872,121.70126 c -0.888638,0.18833 -1.408989,0.78856 0.114406,1.88924 0.484972,-0.066 0.772108,-0.0386 1.301359,0.22811 -0.206106,-0.50723 -0.07798,-0.75639 -1.415765,-2.11735 z"
         style="fill:#f9f9f9;stroke:#000000;stroke-width:0.26458332px;stroke-linecap:butt;stroke-linejoin:miter;stroke-opacity:1" />
      <path
         sodipodi:nodetypes="ccccccccccsscccccccc"
         inkscape:connector-curvature="0"
         id="path937"
         d="m 23.947344,116.55298 c -0.05825,-0.36416 -0.04415,-0.72831 0.299011,-1.09247 2.730416,1.19452 1.170374,3.69429 4.156878,3.57428 0.405671,-0.0287 1.030628,-0.67355 1.370176,-0.47141 0.13433,-0.22809 0.61274,-0.19993 0.621262,-0.14028 1.362742,-1.05316 3.062363,0.49177 3.682191,0.97632 -0.340426,0.32487 -2.184929,0.28364 -2.184929,0.18708 l -0.701356,-0.57693 c 0,0 0.79301,0.60541 0.701356,0.57693 1.12001,0.49746 1.553721,1.38223 0.928761,2.44051 -0.144817,-0.32109 -0.724453,-1.06422 -1.540509,-1.24854 -0.03634,-0.008 -0.05664,-0.0478 -0.0842,-0.0715 -0.561627,-0.48293 -1.195956,-0.93515 -1.195956,-0.93515 l 1.195956,0.93515 c 0.352227,0.65214 0.163927,2.39304 -0.341392,2.9487 -0.722833,-0.44348 -0.662557,-1.03028 -0.694679,-1.64646 -0.311346,-0.3282 -0.673552,-0.59424 -0.716839,-1.25007 -0.992753,-0.22738 -2.010737,-0.24877 -2.913242,0.0167 -0.624609,-2.11629 -1.521983,-3.41428 -2.58249,-4.22287 z"
         style="fill:#61DAFB;stroke:#000000;stroke-width:0.26458332px;stroke-linecap:butt;stroke-linejoin:miter;stroke-opacity:1" />
      <path
         sodipodi:nodetypes="ccccc"
         inkscape:connector-curvature="0"
         id="path939"
         d="m 31.896067,119.47074 c -0.07516,-0.58713 -0.113341,-0.7707 0.24254,-1.23812 1.207414,0.38966 1.514707,0.92586 1.938255,1.1668 -0.638994,0.34307 -1.388345,0.21054 -2.180795,0.0713 z"
         style="fill:#ffffff;stroke:#000000;stroke-width:0.26458332px;stroke-linecap:butt;stroke-linejoin:miter;stroke-opacity:1" />
      <path
         sodipodi:nodetypes="cccc"
         inkscape:connector-curvature="0"
         id="path941"
         d="m 31.448435,120.83263 c -0.05656,-0.41538 0.03384,-0.83075 0.443498,-1.24613 1.608622,0.91343 1.30526,1.67978 0.928761,2.44051 -0.474363,-0.81325 -0.929026,-1.14382 -1.372259,-1.19438 z"
         style="fill:#ffffff;stroke:#000000;stroke-width:0.26458332px;stroke-linecap:butt;stroke-linejoin:miter;stroke-opacity:1" />
      <path
         sodipodi:nodetypes="ccccc"
         inkscape:connector-curvature="0"
         id="path943"
         d="m 30.159915,122.00922 c 0.44376,-0.7131 0.747903,-0.27141 1.13426,-0.0507 0.165211,0.69945 -0.353108,1.72761 -0.439581,1.69709 0,0 -0.853804,-0.68501 -0.694679,-1.64646 z"
         style="fill:#ffffff;stroke:#000000;stroke-width:0.26458332px;stroke-linecap:butt;stroke-linejoin:miter;stroke-opacity:1" />
      <path
         sodipodi:nodetypes="cccc"
         inkscape:connector-curvature="0"
         id="path945"
         d="m 24.58879,143.72093 c -0.102774,-0.71133 0.204794,-1.22551 1.445767,-1.29125 0.338939,1.17203 0.07548,2.15474 -0.109419,3.16214 -0.282891,-0.77498 -0.608401,-1.51028 -1.336348,-1.87089 z"
         style="fill:#f9f9f9;stroke:#000000;stroke-width:0.26458332px;stroke-linecap:butt;stroke-linejoin:miter;stroke-opacity:1" />
      <path
         sodipodi:nodetypes="cccc"
         inkscape:connector-curvature="0"
         id="path947"
         d="m 26.51982,141.99704 c -0.08194,-0.74284 -0.09291,-1.41871 0.91205,-1.13589 0.864654,0.81594 1.077094,1.73896 0.898694,2.72615 -0.442053,-0.67264 -0.846624,-1.37836 -1.810744,-1.59026 z"
         style="fill:#f9f9f9;stroke:#000000;stroke-width:0.26458332px;stroke-linecap:butt;stroke-linejoin:miter;stroke-opacity:1" />
      <path
         sodipodi:nodetypes="cccc"
         inkscape:connector-curvature="0"
         id="path949"
         d="m 10.732161,144.50078 c 0.0055,-0.54613 -0.04407,-1.11556 1.07487,-1.19062 0.83861,0.95615 0.920071,1.95016 0.888274,2.94983 -0.412863,-0.94868 -1.211033,-1.3194 -1.963144,-1.75921 z"
         style="fill:#f9f9f9;stroke:#000000;stroke-width:0.26458332px;stroke-linecap:butt;stroke-linejoin:miter;stroke-opacity:1" />
      <path
         sodipodi:nodetypes="cccc"
         inkscape:connector-curvature="0"
         id="path951"
         d="m 8.1524739,146.0056 c 0.1320803,-0.89275 0.4916867,-1.48557 1.5874999,-1.10794 0.3116092,0.94517 0.4119812,1.93259 0.2826362,2.96595 -0.3292001,-0.86019 -1.06137,-1.39045 -1.8701361,-1.85801 z"
         style="fill:#f9f9f9;stroke:#000000;stroke-width:0.26458332px;stroke-linecap:butt;stroke-linejoin:miter;stroke-opacity:1" />
      <path
         sodipodi:nodetypes="cccc"
         inkscape:connector-curvature="0"
         id="path953"
         d="m -3.116879,122.65758 c 1.057602,3.94236 2.79857311,7.89993 9.9960456,9.83773 l 1.2591904,1.66739 c -4.4467655,0.31958 -11.8974113,-4.93666 -11.255236,-11.50512 z"
         style="fill:#004040;fill-opacity:1;stroke:#000000;stroke-width:0.26458332px;stroke-linecap:butt;stroke-linejoin:miter;stroke-opacity:1" />
      <path
         sodipodi:nodetypes="ccccscccccccccssscc"
         inkscape:connector-curvature="0"
         id="path959"
         d="m 6.8791666,132.49531 c -2.8402858,-8.02789 6.5510704,-8.47019 8.6491874,-3.17353 1.049251,2.04637 1.170096,5.3432 -1.730565,7.39 -1.439327,1.38989 -3.379436,1.67511 -6.3142424,-0.23386 -1.179836,0.98117 -1.6832285,2.98369 -0.7984649,4.21619 0.4208599,0.58627 4.7862193,0.51312 5.1219493,2.61605 -0.82453,0.0523 -1.26324,0.38969 -1.07487,1.19062 l -0.9240658,-0.19494 -0.5651501,-0.63856 0.5651499,0.63856 -0.068121,0.59182 c -1.3076371,-0.43696 -1.4932451,0.28818 -1.5874997,1.10794 -1.9436974,0.10395 -1.7715528,-2.29891 -3.0873806,-2.84728 -0.9400607,-0.16453 -1.5357305,0.34434 -2.3923982,-0.5065 0.1799775,-0.70594 0.6929526,-1.18346 2.1448381,-2.1213 0.2820988,-0.18222 -1.1392653,-3.50221 -1.9587567,-5.03721 -0.1984869,-0.37179 0.2549136,-0.90301 0.8529292,-1.06337 0.7159788,-0.19199 2.3854211,0.80859 4.4266513,-0.26728 z"
         style="fill:#61DAFB;stroke:#000000;stroke-width:0.26458332px;stroke-linecap:butt;stroke-linejoin:miter;stroke-opacity:1" />
      <path
         sodipodi:nodetypes="cccc"
         inkscape:connector-curvature="0"
         id="path955"
         d="m 10.523737,126.84285 c 2.990518,0.87367 4.224588,2.511 4.349812,4.63045 v -0.0935 c -0.141352,-2.32239 -1.589219,-3.83599 -4.349812,-4.53695 z"
         style="fill:none;stroke:#ffffff;stroke-width:0.26458332px;stroke-linecap:butt;stroke-linejoin:miter;stroke-opacity:1" />
      <path
         inkscape:connector-curvature="0"
         id="path957"
         d="m 15.013865,132.59583 -0.04677,1.26285"
         style="fill:none;stroke:#ffffff;stroke-width:0.26458332px;stroke-linecap:butt;stroke-linejoin:miter;stroke-opacity:1" />
      <path
         sodipodi:nodetypes="ccc"
         inkscape:connector-curvature="0"
         id="path961"
         d="m 24.229655,112.72768 c 5.127003,2.61167 9.651728,2.51582 12.224967,-2.01089 -2.623798,3.18675 -7.530341,2.81997 -12.224967,2.01089 z"
         style="fill:#004040;fill-opacity:1;stroke:#000000;stroke-width:0.26458332px;stroke-linecap:butt;stroke-linejoin:miter;stroke-opacity:1" />
      <path
         sodipodi:nodetypes="cc"
         inkscape:connector-curvature="0"
         id="path963"
         d="m 37.292452,100.63207 c 0.330943,0.81025 0.705492,1.55197 0.740002,2.82804"
         style="fill:none;stroke:#000000;stroke-width:0.26458332px;stroke-linecap:butt;stroke-linejoin:miter;stroke-opacity:1" />
    </g>
  </g>
</svg>
