<?xml version="1.0" encoding="utf-8"?>
<!-- Generator: Adobe Illustrator 21.0.0, SVG Export Plug-In . SVG Version: 6.00 Build 0)  -->
<svg version="1.1" id="Capa_1" xmlns="http://www.w3.org/2000/svg" xmlns:xlink="http://www.w3.org/1999/xlink" x="0px" y="0px"
	 viewBox="0 0 1080 1080" style="enable-background:new 0 0 1080 1080;" xml:space="preserve">
<g fill="#61DAFB">
	<path d="M295.9,508.8c91.3,0,104.2-50.2,104.2-95.2c0-36-5.1-72-10.3-108c-5.1-36-10.3-70.7-10.3-106.7
		c0-118.3,77.2-168.5,186.5-168.5h27v70.7h-23.1c-75.9,0-101.6,41.1-101.6,110.6c0,29.6,3.9,60.4,9,91.3c5.1,32.1,9,63,9,97.7
		c1.3,82.3-34.7,123.4-92.6,138.9v2.6c57.9,14.1,93.9,57.9,92.6,140.2c0,34.7-3.9,66.9-9,97.7c-5.1,32.1-9,61.7-9,92.6
		c0,72,29.6,111.9,101.6,111.9h23.1v70.7h-27c-106.7,0-186.5-46.3-186.5-176.2c0-34.7,5.1-70.7,10.3-105.4
		c5.1-34.7,10.3-69.4,10.3-104.2c0-39.9-12.9-95.2-104.2-95.2V508.8z"/>
</g>
</svg>
